<svg width="395" height="142" viewBox="0 0 395 142" fill="none" xmlns="http://www.w3.org/2000/svg">
<path d="M166.409 65.8706V82.6546H159.041V66.9895C159.041 63.7446 159.599 61.0592 160.604 58.9332C161.609 56.8072 163.172 55.1288 164.958 53.898C166.744 52.6671 168.865 51.772 171.321 51.2125C173.811 50.6327 176.357 50.3324 178.913 50.3174V56.4715H177.127C173.666 56.4715 171.098 57.2548 169.312 58.8213C167.414 60.164 166.409 62.6257 166.409 65.8706ZM223.569 88.9206C224.908 87.9136 226.025 86.2352 226.918 83.8854L238.752 50.3174H234.175C232.5 50.3174 231.495 50.9887 231.16 52.4434L224.574 74.0388L217.429 50.3174H209.949L220.778 79.6335C221.671 82.0951 220.778 83.4379 219.996 84.1092C218.88 85.0044 217.875 84.8925 215.642 84.8925H215.084V90.1515H216.87C219.996 90.1515 222.229 90.0396 223.569 88.9206ZM244.222 79.8573C246.343 81.6476 249.693 82.5427 254.158 82.5427C258.847 82.5427 262.419 81.6476 264.652 79.9692C266.997 78.1789 268.225 75.7172 268.225 72.3604C268.225 70.1225 267.555 68.4441 266.215 67.1014C264.652 65.7587 261.861 64.6398 257.842 63.6327L255.498 63.1851C250.586 62.1781 248.353 60.8354 248.353 58.9332C248.353 57.5905 248.911 56.5834 249.916 55.9121C250.921 55.3526 252.26 55.0169 254.158 55.0169C256.056 55.0169 257.619 55.4645 258.847 56.3596L258.959 56.4715L259.294 56.8072C259.544 57.0438 259.768 57.3063 259.963 57.5905C261.08 58.9332 261.75 59.3808 262.754 59.3808H266.997C266.662 56.8072 265.545 54.6812 263.648 53.0028C261.303 51.2125 258.066 50.3174 254.046 50.3174C250.362 50.3174 247.348 51.2125 245.004 53.0028C242.882 54.905 241.766 57.1429 241.766 60.0521C241.766 62.29 242.436 63.9684 243.887 65.3111C245.227 66.6538 248.018 67.8847 252.149 68.8917H252.26C252.93 69.1155 254.046 69.3393 255.498 69.5631C257.061 69.8987 261.526 70.7939 261.526 73.815C261.526 74.7102 261.191 76.0529 259.628 76.948C258.4 77.6194 256.949 77.9551 255.275 77.9551C253.042 77.9551 251.144 77.5075 249.804 76.6124C248.576 75.7172 247.906 74.5983 247.683 73.0318H241.096C241.096 75.941 242.213 78.2908 244.222 79.8573ZM184.606 79.9692C186.728 81.7595 190.077 82.6546 194.542 82.6546C199.231 82.6546 202.804 81.7595 205.148 80.0811C207.604 78.2908 208.721 75.7172 208.721 72.3604C208.721 70.1225 208.051 68.4441 206.711 67.1014C205.148 65.7587 202.357 64.6398 198.338 63.6327L195.994 63.1851C190.97 62.1781 188.849 60.8354 188.849 58.9332C188.849 57.5905 189.407 56.5834 190.412 55.9121C191.417 55.2407 192.756 55.0169 194.654 55.0169C196.552 55.0169 198.115 55.4645 199.343 56.3596L199.455 56.4715L199.79 56.8072L200.571 57.5905C201.687 58.9332 202.357 59.3808 203.474 59.3808H207.716C207.381 56.8072 206.265 54.6812 204.367 53.0028C202.022 51.2125 198.785 50.3174 194.654 50.3174C190.97 50.3174 187.844 51.2125 185.611 53.0028C183.378 54.905 182.374 57.2548 182.374 60.0521C182.374 62.29 183.044 63.9684 184.495 65.3111C185.835 66.6538 188.626 67.8847 192.868 68.8917H192.979C193.649 69.1155 194.766 69.3393 196.217 69.5631C197.78 69.8987 202.246 70.7939 202.246 73.815C202.246 74.7102 201.911 76.0529 200.236 76.948C199.008 77.6194 197.557 77.9551 195.882 77.9551C193.649 77.9551 191.751 77.5075 190.412 76.5005C189.184 75.6053 188.514 74.4864 188.179 72.9199H181.592C181.481 76.0529 182.597 78.2908 184.606 79.9692ZM154.017 58.7094V70.0106C154.017 73.1437 153.459 75.4934 152.231 77.2837C151.003 78.9621 149.552 80.1929 147.989 80.9762C146.202 81.8714 144.305 82.3189 142.295 82.5427L136.825 82.8784C133.81 82.8784 131.131 82.0951 128.898 80.6405C126.777 79.1859 125.661 76.8361 125.661 73.3674C125.661 70.2344 126.554 67.9966 128.563 66.6538C130.573 65.1992 133.364 64.3041 136.601 63.8565L140.397 63.4089C142.072 63.1851 147.207 62.5138 147.207 59.2689C147.207 57.7024 146.314 56.4715 144.416 55.9121C143.075 55.5212 141.682 55.3326 140.285 55.3526C139.037 55.3572 137.795 55.5457 136.601 55.9121C135.485 56.1358 134.592 56.6953 134.034 57.5905H128.117C127 57.5905 127 56.8072 127.224 56.4715C127.787 55.0616 128.759 53.8533 130.015 53.0028C132.247 51.2125 135.485 50.3174 139.727 50.3174C144.528 50.3174 148.212 51.1006 150.556 52.5553C152.901 54.0099 154.017 56.024 154.017 58.7094ZM147.207 64.9754L145.867 65.6468C144.639 66.2063 142.965 66.7657 140.844 67.2133L137.718 67.8847C135.932 68.3322 134.703 68.8917 133.81 69.675C132.694 70.682 132.582 72.0247 132.582 73.1437C132.582 74.7102 133.141 75.941 134.145 76.8361C135.15 77.6194 136.49 78.067 138.276 78.067C141.067 78.067 143.188 77.2837 144.863 75.8291C146.537 74.3745 147.319 72.2485 147.319 69.675V64.9754H147.207Z" fill="white"/>
</svg>
