<svg width="395" height="142" viewBox="0 0 395 142" fill="none" xmlns="http://www.w3.org/2000/svg">
<g clip-path="url(#clip0_31_499)">
<path opacity="0.5" d="M120.239 63.3325C120.007 63.3325 119.775 63.3325 119.59 63.3786C117.781 63.6084 116.251 64.6199 115.416 66.1831C115.045 66.0912 114.674 65.9992 114.256 65.8613C112.587 65.4475 111.196 65.2176 110.036 65.1257H109.341C108.089 65.1257 106.744 65.3555 105.399 65.8153C104.332 66.1831 103.405 66.5509 102.616 66.8728C101.55 67.3325 100.576 67.8842 99.7411 68.5279C98.5353 69.4474 97.6542 70.7808 96.9122 72.5738C96.4948 73.6313 96.1238 74.5508 95.7528 75.4244C95.2427 76.6658 94.9181 78.137 94.7326 79.7002C94.5935 80.9415 94.5007 82.091 94.4543 83.1484C94.3616 84.2978 94.3616 85.4932 94.4543 86.6427C94.5471 88.4357 95.0572 89.999 95.9847 91.3782L97.4223 93.4932C98.2107 94.6886 99.4165 95.792 100.947 96.8035C102.57 97.861 103.961 98.5046 105.352 98.7345C106.094 98.8724 107.115 99.0103 108.367 99.1943C109.526 99.3782 110.5 99.4241 111.381 99.4241C111.706 99.4241 112.03 99.4241 112.355 99.3782C113.746 99.2863 115.138 98.8265 116.575 98.0909C116.854 97.9529 117.085 97.815 117.364 97.6311C118.338 98.8265 119.822 99.4701 121.352 99.4701C123.253 99.4701 125.711 98.3207 126.36 95.0564C126.546 94.0908 126.592 92.7576 126.546 90.5966C126.499 88.9415 126.407 85.7231 126.36 81.0795C126.314 76.2979 126.221 73.0336 126.082 71.2865C125.897 68.9876 125.665 67.6084 125.201 66.5509C124.274 64.5739 122.372 63.3325 120.239 63.3325ZM108.784 76.5738H110.778C111.288 76.5738 111.891 76.6198 112.448 76.7117C113.004 77.2175 113.283 77.5393 113.375 77.6313C113.422 77.7232 113.7 78.137 114.303 79.5163C114.674 80.3439 114.906 81.1255 114.906 81.7692C114.952 82.5048 114.859 83.1944 114.674 83.884C114.488 84.5737 114.164 85.2634 113.7 85.999C113.329 86.5967 112.912 87.1025 112.402 87.5622C112.03 87.8381 111.567 88.068 111.103 88.2059C110.964 88.2518 110.825 88.2518 110.686 88.2518C110.593 88.2518 110.454 88.2518 110.361 88.2059C109.526 88.0219 108.738 87.7921 107.95 87.4702C107.254 87.1944 106.929 87.0105 106.836 86.9185L105.584 85.953C105.538 85.3093 105.492 84.2978 105.492 82.6427C105.492 81.3094 105.677 80.114 106.048 79.0566C106.28 78.4588 106.744 77.8152 107.486 77.1715C107.996 76.9416 108.413 76.7577 108.784 76.5738Z" fill="#F4CDC2"/>
<path opacity="0.5" d="M131.647 64.3443C130.72 64.3443 129.838 64.5741 129.004 65.0339C127.381 65.9534 126.268 67.7005 126.082 69.6316L125.989 70.3672V71.3327C126.546 84.6659 126.917 92.7118 126.963 93.7233C127.195 96.8957 128.725 98.2749 130.024 98.9186C130.766 99.2865 131.554 99.4703 132.343 99.4703C133.873 99.4703 135.357 98.7807 136.377 97.5393C137.537 96.1601 137.861 94.413 137.769 89.8153C137.722 87.0107 137.676 83.9763 137.676 80.8498C137.676 78.9188 137.676 77.7694 137.629 76.9418C137.908 76.5741 138.232 76.2062 138.65 75.8844C138.928 75.6545 139.299 75.5165 139.809 75.4246C140.18 75.3327 140.551 75.2867 140.829 75.2867C141.015 75.2867 141.108 75.2867 141.2 75.3327C141.339 75.3787 141.386 75.3787 141.432 75.4246C142.313 76.2522 142.963 76.7579 143.565 77.0798C143.705 77.1717 143.936 77.3097 144.354 77.5855C145.513 78.4131 146.765 78.8269 147.971 78.8269C149.594 78.8269 151.125 78.0913 152.191 76.7579C153.165 75.5165 153.629 73.9534 153.397 72.3442C153.165 70.643 152.145 69.1718 150.568 68.2063C150.383 68.1143 150.012 67.8385 149.316 67.2868C148.11 66.2752 146.673 65.5396 145.142 65.1259C143.983 64.804 142.638 64.6202 141.154 64.5281H140.366C139.021 64.5281 137.676 64.7121 136.331 65.0339C135.914 65.1259 135.496 65.2638 135.125 65.4017C134.105 64.7121 132.899 64.2983 131.647 64.3443Z" fill="#F4CDC2"/>
<path opacity="0.5" d="M161.791 61.4936C160.539 61.4936 159.287 61.9074 158.035 62.7349L157.896 62.8269C157.385 63.1947 156.968 63.6545 156.69 64.2062L156.597 64.3441C154.603 68.2981 153.583 70.8268 153.165 72.5279C152.841 73.9992 152.563 75.5623 152.377 77.1716C152.192 78.8267 152.145 80.3439 152.192 81.6772C152.284 83.6082 152.887 85.4474 154.047 87.1485C155.067 88.6657 156.226 89.8611 157.571 90.7347C158.591 91.4243 159.704 91.976 160.771 92.4818C162.209 93.1254 163.646 93.4473 165.084 93.4473H168.33C170.092 93.4473 171.391 93.3093 172.411 93.0794C173.57 92.8036 174.869 92.1599 176.585 91.1025C178.626 89.8151 180.063 88.2519 180.898 86.4129C181.5 85.0795 181.964 83.6543 182.242 82.229C182.521 80.8037 182.706 79.1026 182.706 77.2635C182.706 75.1486 182.196 72.6659 181.13 69.8613C179.831 66.3211 178.579 64.1602 176.167 63.4246C174.452 62.9189 172.597 63.1027 171.066 64.0223C170 64.62 169.211 65.4935 168.701 66.597C168.237 67.6544 167.959 69.3096 168.887 71.4705C169.304 72.436 169.86 73.5854 170.463 74.8267C170.742 75.4245 170.927 76.1601 170.927 76.9876C170.927 78.183 170.834 79.2405 170.649 80.0221C170.463 80.9416 170.278 81.2635 170.278 81.2635C170.278 81.3095 170.046 81.6313 169.397 82.229C169.165 82.4589 168.887 82.5968 168.516 82.6888C167.82 82.8726 167.217 82.9646 166.661 82.9646C166.15 82.9646 165.64 82.8726 165.13 82.7347C164.713 82.5968 164.342 82.4129 164.017 82.183C163.739 81.9532 163.553 81.7692 163.507 81.7233C163.461 81.5853 163.368 81.0796 163.275 80.1141C163.182 79.0566 163.275 78.0911 163.507 77.2175C163.832 76.0221 164.249 74.7808 164.759 73.4934C165.362 72.0682 165.64 71.5624 165.687 71.4705C166.475 70.413 166.939 69.2636 167.078 68.1142C167.263 66.7349 167.032 65.4475 166.382 64.2981C165.548 62.551 163.739 61.4476 161.791 61.4936Z" fill="#F4CDC2"/>
<path opacity="0.5" d="M188.411 42.2295C187.159 42.2295 185.999 42.6433 185.071 43.4249C183.68 44.6203 183.448 46.0455 183.263 47.7467C183.124 49.5398 183.031 52.85 182.984 58.1374C182.892 67.1488 182.799 70.2752 182.706 71.3326C182.567 73.0338 182.474 76.3441 182.428 81.1256C182.382 85.7693 182.289 88.9876 182.242 90.6428C182.15 92.8037 182.196 94.137 182.428 95.1025C183.077 98.3209 185.535 99.5163 187.437 99.5163C188.967 99.5163 190.405 98.8267 191.425 97.6772C191.703 97.8152 191.935 97.999 192.214 98.137C193.651 98.8726 195.042 99.3324 196.433 99.4243C196.758 99.4703 197.082 99.4703 197.407 99.4703C198.288 99.4703 199.263 99.3784 200.422 99.2404C201.72 99.0565 202.741 98.9186 203.436 98.7807C204.781 98.5508 206.172 97.9531 207.841 96.8956C209.372 95.8842 210.578 94.7347 211.366 93.5853L212.804 91.4704C213.731 90.0911 214.241 88.5279 214.334 86.7348C214.427 84.436 214.334 82.0911 214.056 79.7924C213.916 78.2291 213.546 76.7579 213.036 75.5165C212.664 74.643 212.294 73.6775 211.876 72.666C211.18 70.8269 210.253 69.4936 209.048 68.62C208.166 67.9304 207.192 67.3787 206.172 66.9649C205.384 66.643 204.456 66.2752 203.389 65.9074C202.044 65.4476 200.746 65.2178 199.448 65.2178H198.798C197.639 65.3097 196.248 65.5396 194.578 65.9534C194.3 66.0453 194.021 66.0913 193.743 66.1833C193.743 64.6201 193.79 62.735 193.836 60.2983C193.976 51.149 194.115 49.4938 194.161 49.2179C194.439 46.9651 193.743 44.1145 190.915 42.9191C190.033 42.4134 189.199 42.2295 188.411 42.2295ZM196.34 76.62C196.944 76.528 197.5 76.482 198.01 76.482H200.005C200.375 76.6659 200.792 76.8958 201.257 77.0797C201.999 77.7234 202.509 78.3671 202.694 78.9647C203.065 80.0222 203.251 81.2176 203.251 82.5509C203.251 84.1601 203.204 85.2176 203.158 85.8613L201.906 86.8268C201.812 86.9187 201.488 87.1026 200.792 87.3785C200.005 87.6543 199.216 87.9302 198.381 88.1141C198.288 88.1601 198.149 88.1601 198.056 88.1601C197.917 88.1601 197.778 88.1601 197.639 88.1141C197.175 87.9761 196.758 87.7463 196.34 87.4704C196.062 87.2405 195.598 86.7807 195.042 85.9072C194.578 85.1716 194.253 84.436 194.068 83.7923C193.883 83.1026 193.836 82.413 193.836 81.6774C193.883 81.0337 194.068 80.2521 194.439 79.4245C195.042 78.0912 195.32 77.6314 195.367 77.5395C195.552 77.4475 195.784 77.1257 196.34 76.62Z" fill="#F4CDC2"/>
<path opacity="0.5" d="M240.072 63.3325C239.84 63.3325 239.608 63.3325 239.376 63.3786C237.567 63.6084 236.083 64.6199 235.203 66.1371C234.831 66.0451 234.461 65.9532 234.043 65.8153C232.374 65.4015 230.982 65.1716 229.823 65.0797H229.128C227.829 65.0797 226.53 65.3095 225.185 65.7693C224.119 66.1371 223.145 66.5049 222.403 66.8268C221.337 67.2866 220.363 67.8383 219.528 68.4819C218.322 69.4014 217.441 70.7348 216.699 72.5279C216.282 73.5853 215.91 74.5508 215.54 75.3784C215.029 76.6198 214.705 78.091 214.519 79.6542C214.241 81.9531 214.148 84.2978 214.241 86.5967C214.334 88.3898 214.844 89.9529 215.771 91.3323L217.209 93.4472C217.997 94.6426 219.203 95.746 220.733 96.7575C222.357 97.815 223.748 98.4586 225.139 98.6426C225.881 98.7804 226.902 98.9184 228.154 99.1023C229.313 99.2863 230.287 99.3322 231.168 99.3322C231.492 99.3322 231.817 99.3322 232.142 99.2863C233.533 99.1943 234.924 98.7345 236.362 97.9988C236.64 97.861 236.872 97.723 237.15 97.5391C238.124 98.7345 239.608 99.3782 241.138 99.3782C243.039 99.3782 245.498 98.2287 246.147 95.0104C246.332 94.0449 246.379 92.7116 246.332 90.5507C246.286 88.8955 246.24 85.7691 246.147 81.0335C246.1 76.2979 246.008 72.9876 245.869 71.2405C245.683 68.9417 245.451 67.5624 244.988 66.5049C244.106 64.5739 242.205 63.3325 240.072 63.3325ZM228.617 76.5738H230.611C231.122 76.5738 231.724 76.6198 232.281 76.7117C232.837 77.2175 233.116 77.5393 233.209 77.6313C233.254 77.7232 233.533 78.137 234.136 79.5163C234.507 80.3439 234.738 81.1255 234.738 81.7692C234.785 82.5048 234.693 83.1944 234.507 83.884C234.321 84.5737 233.996 85.2634 233.533 85.999C233.162 86.5967 232.744 87.1025 232.234 87.5622C231.864 87.884 231.4 88.068 230.936 88.2059C230.797 88.2518 230.658 88.2518 230.518 88.2518C230.426 88.2518 230.287 88.2518 230.194 88.2059C229.359 88.0219 228.571 87.7921 227.782 87.4702C227.087 87.1944 226.762 87.0105 226.67 86.9185L225.418 85.953C225.371 85.3093 225.325 84.2978 225.325 82.6427C225.325 81.3094 225.51 80.114 225.881 79.0566C226.113 78.4588 226.577 77.8152 227.319 77.1715C227.829 76.9416 228.246 76.7577 228.617 76.5738Z" fill="#F4CDC2"/>
<path opacity="0.5" d="M252.732 85.6774C252.315 85.6774 251.851 85.7694 251.434 85.9073L250.507 86.2751C247.492 87.3786 246.472 89.3096 246.147 90.7349C245.915 91.7464 245.869 92.7578 246.008 93.7233C246.194 94.8727 246.889 96.9876 249.811 98.183C250.785 98.5969 251.759 98.7807 252.732 98.7807C253.428 98.7807 254.123 98.6888 254.773 98.4589C256.072 98.0451 257.184 97.3095 258.019 96.298C259.225 94.8727 259.643 93.0337 259.178 91.1946C258.808 89.7233 257.926 88.436 256.674 87.5625C256.257 87.2866 255.886 87.0107 255.515 86.8269C255.33 86.6429 255.144 86.459 254.912 86.2751C254.216 85.9073 253.474 85.6774 252.732 85.6774ZM265.068 51.103C263.677 51.103 262.379 51.4709 261.172 52.2065C259.92 52.9881 258.993 53.9996 258.483 55.2409C258.112 56.0685 257.926 56.9421 257.787 57.9076C257.694 58.5972 257.694 59.2409 257.694 59.8846C257.694 61.034 257.926 62.0914 258.436 63.0569C258.715 63.5627 258.993 64.0684 259.318 64.5741C259.643 65.0339 260.06 65.5857 260.616 66.2753L260.709 66.4132C260.755 66.4592 260.802 66.5512 260.848 66.5972C260.755 67.1029 260.709 67.6546 260.709 68.2063C260.709 69.1718 260.848 70.0914 261.127 70.965C262.054 82.0912 262.517 88.2061 262.611 88.9417C262.842 91.8383 264.558 93.2176 265.532 93.7693C266.459 94.275 267.387 94.5509 268.361 94.5509C269.288 94.5509 270.215 94.275 271.05 93.8153C271.932 93.3095 273.416 92.0222 273.694 89.3556C273.74 88.7578 273.833 88.0682 272.906 77.9533C272.117 69.2638 271.885 67.4247 271.792 66.8271C271.7 66.3673 271.607 65.9075 271.422 65.4937C271.792 64.988 272.117 64.3903 272.442 63.7006C273.138 62.0914 273.462 60.5283 273.323 59.011C273.231 57.5398 272.813 56.2064 272.164 55.011C271.329 53.4938 269.938 52.2984 268.314 51.6548C267.155 51.287 266.089 51.103 265.068 51.103Z" fill="#F4CDC2"/>
<path opacity="0.5" d="M287.375 45.1719C285.844 45.1719 284.407 45.8155 283.248 46.965C281.764 48.4362 281.393 50.3213 281.486 55.4246L281.624 60.8958C276.477 61.3556 275.92 61.6314 275.132 62.1373C273.277 63.1947 272.256 64.9418 272.256 66.8728C272.256 67.9762 272.628 69.0337 273.323 69.9072C273.926 70.6889 275.132 71.6543 277.173 71.8842C277.497 71.9303 277.821 71.9303 278.239 71.9303C279.027 71.9303 280.094 71.8842 281.578 71.7463C281.624 73.5394 281.624 75.8383 281.671 78.5968C281.81 87.0566 281.764 89.8611 281.717 90.7347C281.578 93.0335 281.856 94.6427 282.598 95.884C283.665 97.7231 285.381 98.7345 287.282 98.7345C288.673 98.7345 290.621 98.1828 292.151 95.6082C293.033 94.0909 293.311 92.022 293.172 87.9301C293.079 85.1255 293.033 81.0796 293.079 75.9302C293.079 73.9532 293.125 72.298 293.125 71.0567H293.59C296.094 71.0567 298.041 70.321 299.293 68.8958C301.426 66.505 300.916 63.7004 299.525 61.9993C298.737 61.0797 297.253 59.9304 294.702 59.9304H294.377C294.007 59.9304 293.59 59.9764 293.125 59.9764C293.125 59.6085 293.125 59.1948 293.079 58.735C293.033 55.2407 292.94 52.896 292.755 51.3788C292.661 50.5511 292.523 49.5396 292.151 48.5282C291.456 46.6891 290.019 45.4937 288.21 45.2638C287.885 45.1719 287.607 45.1719 287.375 45.1719Z" fill="#F4CDC2"/>
<path d="M121.352 95.7922C120.934 95.7922 120.285 95.6082 119.821 94.6888C119.636 94.3209 119.45 93.5393 119.404 90.6428L117.41 92.8037C116.668 93.6313 115.787 94.275 114.813 94.7807C113.978 95.2864 113.004 95.5623 112.03 95.6543C111.196 95.7002 110.175 95.6543 108.877 95.4703C107.625 95.2864 106.651 95.1485 105.909 95.0106C105.074 94.8726 104.147 94.4589 102.987 93.6773C101.828 92.9417 100.993 92.16 100.483 91.3784L99.0453 89.2635C98.4888 88.4819 98.2105 87.4704 98.1178 86.367C98.0714 85.3555 98.0714 84.298 98.1178 83.2866C98.1642 82.2751 98.2569 81.1716 98.396 79.9763C98.5352 78.7348 98.767 77.6314 99.138 76.7119C99.509 75.8384 99.88 74.8729 100.297 73.8154C100.761 72.62 101.318 71.7924 101.921 71.3326C102.523 70.8729 103.173 70.5051 103.961 70.1832C104.703 69.8614 105.584 69.5396 106.558 69.2178C107.671 68.8499 108.691 68.666 109.665 68.758C110.593 68.804 111.798 69.0338 113.236 69.4016C114.72 69.7695 115.879 70.1832 116.761 70.597C117.317 70.8729 117.874 71.2407 118.291 71.6545C118.245 71.1028 118.198 70.643 118.152 70.2292C118.105 69.4936 118.152 68.804 118.384 68.2523C118.662 67.5626 119.218 67.1028 119.914 67.0108C120.702 66.9189 121.352 67.3327 121.723 68.1143C122.001 68.712 122.186 69.8614 122.326 71.6085C122.465 73.2637 122.557 76.482 122.604 81.1716C122.65 85.8613 122.743 89.0796 122.789 90.7808C122.836 92.5738 122.836 93.7233 122.697 94.3669C122.511 95.6082 121.769 95.7922 121.352 95.7922ZM102.523 77.8613C102.013 79.2866 101.781 80.9417 101.781 82.6429C101.781 84.436 101.828 85.8152 101.967 86.7807C102.06 87.5624 102.338 88.1141 102.755 88.39C103.358 88.8038 103.961 89.2636 104.564 89.7232C105.074 90.1371 105.816 90.5049 106.697 90.8727C107.625 91.1945 108.552 91.5164 109.526 91.7463C110.407 91.9301 111.288 91.9301 112.216 91.6543C113.143 91.3784 113.978 90.9646 114.72 90.3669C115.555 89.6773 116.297 88.8038 116.853 87.8842C117.503 86.8268 118.013 85.7693 118.291 84.7118C118.569 83.6544 118.662 82.5969 118.616 81.4935C118.569 80.39 118.245 79.1946 117.688 77.9533C116.992 76.3441 116.575 75.6545 116.343 75.3786C116.019 74.9648 115.555 74.4591 114.906 73.9074C114.395 73.4476 113.746 73.1257 113.051 73.0338C112.262 72.9419 111.474 72.8499 110.732 72.8499H108.506C107.81 72.8499 107.439 72.9878 107.3 73.0797C106.929 73.3096 106.326 73.6315 105.491 73.9993C104.007 75.1947 103.034 76.528 102.523 77.8613ZM132.343 95.7922C132.111 95.7922 131.925 95.7462 131.693 95.6543C131.091 95.3784 130.766 94.6428 130.673 93.4934C130.627 92.6198 130.302 85.4475 129.699 71.1948V70.735L129.792 69.9994C129.885 69.2637 130.256 68.5741 130.905 68.2523C131.183 68.1143 131.415 68.0224 131.693 68.0224C132.25 68.0224 132.853 68.2062 133.131 68.712C133.502 69.4936 133.456 70.597 133.548 70.9188C133.687 70.7809 133.827 70.597 134.012 70.4131C134.8 69.5396 135.867 68.9418 137.212 68.62C138.464 68.2982 139.716 68.2062 140.968 68.2523C142.174 68.2982 143.287 68.4821 144.215 68.712C145.235 68.9879 146.162 69.4936 146.951 70.1372C147.6 70.689 148.157 71.1028 148.574 71.3326C149.223 71.7465 149.594 72.2522 149.687 72.8959C149.78 73.4936 149.641 74.0453 149.27 74.505C148.806 75.1028 148.296 75.1947 147.925 75.1947C147.461 75.1947 146.997 75.0108 146.441 74.643C146.023 74.3671 145.699 74.1373 145.42 73.9533C145.096 73.7694 144.586 73.3556 143.89 72.712C143.334 72.2062 142.638 71.8843 141.896 71.7465C141.107 71.6085 140.134 71.6085 139.067 71.8384C138 72.0683 137.073 72.4361 136.331 73.0338C135.589 73.6315 134.94 74.3211 134.429 75.0567C134.059 75.6545 133.919 75.9303 133.827 76.0222C133.873 76.574 133.919 77.7693 133.919 80.8498C133.919 84.0222 133.966 87.1026 134.012 89.9072C134.105 94.137 133.78 94.8726 133.502 95.1945C133.224 95.6082 132.806 95.7922 132.343 95.7922ZM168.376 89.7693H165.13C164.202 89.7693 163.275 89.5394 162.301 89.1256C161.373 88.7118 160.492 88.252 159.658 87.7003C158.776 87.1026 157.942 86.229 157.153 85.1716C156.411 84.1141 155.994 82.9188 155.947 81.6314C155.901 80.482 155.947 79.1487 156.133 77.6774C156.319 76.2062 156.55 74.7809 156.829 73.4476C157.153 72.0683 158.174 69.6775 159.936 66.0914L160.029 65.9534L160.168 65.8615C160.771 65.4477 161.281 65.2637 161.791 65.2637C162.394 65.2637 162.904 65.5856 163.182 66.0914C163.414 66.5511 163.507 67.0569 163.46 67.6545C163.368 68.2062 163.136 68.804 162.718 69.3557C162.486 69.6775 162.069 70.3671 161.373 72.1142C160.817 73.5395 160.307 74.9648 159.982 76.2981C159.658 77.5855 159.518 78.9647 159.658 80.39C159.797 82.1832 160.075 83.0107 160.307 83.3785C160.631 83.9303 161.142 84.5279 161.791 85.0337C162.486 85.5853 163.275 85.9992 164.11 86.229C165.825 86.7348 167.588 86.7348 169.535 86.229C170.463 85.9992 171.298 85.5394 171.993 84.8958C172.689 84.2521 173.245 83.6544 173.57 83.1026C173.895 82.5509 174.173 81.7693 174.358 80.7579C174.59 79.7004 174.683 78.413 174.683 76.9418C174.683 75.5165 174.405 74.2292 173.848 73.1257C173.245 71.9304 172.735 70.8269 172.318 69.9074C171.53 68.1143 172.457 67.3787 172.874 67.1488C173.616 66.735 174.405 66.6431 175.1 66.8729C175.703 67.0569 176.399 67.7005 177.651 71.0568C178.532 73.4936 178.996 75.5625 178.996 77.2176C178.996 78.8268 178.857 80.2521 178.625 81.4475C178.393 82.6429 178.022 83.7923 177.512 84.8958C177.002 86.0451 176.028 87.1026 174.59 87.9761C173.245 88.8497 172.225 89.3555 171.483 89.5394C170.834 89.6773 169.814 89.7693 168.376 89.7693ZM187.482 95.7462C187.065 95.7462 186.323 95.5623 186.091 94.3209C185.952 93.6773 185.906 92.4819 185.998 90.7348C186.045 89.0337 186.138 85.8152 186.184 81.1256C186.23 76.4361 186.323 73.2177 186.462 71.5625C186.602 69.9534 186.648 65.4017 186.74 58.1374C186.833 46.8272 187.158 46.5513 187.482 46.2295C187.807 45.9536 188.456 45.6777 189.431 46.1375C190.033 46.4134 190.683 47.0111 190.497 48.6202C190.404 49.5398 190.265 53.4018 190.126 60.0684C189.987 66.735 189.987 70.735 190.033 71.9763C190.59 71.3786 191.193 70.9188 191.981 70.5511C192.862 70.1372 194.021 69.7235 195.505 69.3557C196.943 68.9879 198.149 68.804 199.076 68.712C200.05 68.666 201.117 68.804 202.184 69.1717C203.204 69.5396 204.085 69.8614 204.781 70.1372C205.569 70.4591 206.218 70.8269 206.821 71.2867C207.47 71.7924 207.98 72.62 208.444 73.7694C208.861 74.8268 209.233 75.7923 209.603 76.6659C209.975 77.5855 210.253 78.6889 210.345 79.9302C210.485 81.1256 210.578 82.2291 210.623 83.2406C210.67 84.2521 210.67 85.3095 210.623 86.321C210.578 87.4244 210.253 88.4359 209.696 89.2175L208.259 91.3325C207.749 92.114 206.914 92.8956 205.755 93.6313C204.595 94.4129 203.621 94.8267 202.832 94.9646C202.137 95.1025 201.163 95.2405 199.865 95.4244C198.566 95.6082 197.5 95.6543 196.711 95.6082C195.83 95.5623 194.903 95.2405 193.929 94.7347C192.955 94.229 192.12 93.5393 191.332 92.7577L189.338 90.5968C189.291 93.4934 189.106 94.275 188.921 94.6428C188.503 95.5623 187.9 95.7462 187.482 95.7462ZM198.056 72.8499C197.314 72.8499 196.572 72.8959 195.738 73.0338C195.041 73.1257 194.439 73.4016 193.882 73.9074C193.279 74.4591 192.769 74.9648 192.445 75.3786C192.213 75.6545 191.795 76.3441 191.1 77.9533C190.543 79.2406 190.218 80.436 190.173 81.4935C190.126 82.5969 190.218 83.7004 190.497 84.7118C190.775 85.7693 191.239 86.8268 191.935 87.8842C192.491 88.8038 193.234 89.6773 194.068 90.3669C194.81 90.9646 195.691 91.3784 196.572 91.6543C197.453 91.9301 198.334 91.9301 199.262 91.7463C200.236 91.5164 201.21 91.2405 202.091 90.8727C202.972 90.5509 203.667 90.183 204.224 89.7232C204.827 89.2636 205.43 88.8038 206.033 88.39C206.45 88.1141 206.728 87.5624 206.821 86.7807C206.914 85.8152 207.007 84.39 207.007 82.6429C207.007 80.8958 206.728 79.2866 206.265 77.8613C205.801 76.482 204.781 75.1947 203.296 73.9993C202.462 73.6315 201.859 73.3556 201.488 73.0797C201.302 72.9878 200.978 72.8499 200.282 72.8499H198.056ZM241.185 95.7922C240.768 95.7922 240.118 95.6082 239.655 94.6888C239.469 94.3209 239.283 93.5393 239.238 90.6428L237.243 92.8037C236.501 93.6313 235.62 94.275 234.646 94.7807C233.811 95.2864 232.837 95.5623 231.864 95.6543C231.029 95.7002 230.008 95.6543 228.71 95.4703C227.458 95.2864 226.484 95.1485 225.742 95.0106C224.908 94.8726 223.98 94.4589 222.821 93.6773C221.661 92.9417 220.826 92.16 220.316 91.3784L218.879 89.2635C218.322 88.4359 218.044 87.4704 217.951 86.367C217.904 85.3555 217.904 84.298 217.951 83.2866C217.997 82.2751 218.09 81.1716 218.229 79.9763C218.369 78.7348 218.601 77.6314 218.971 76.7119C219.343 75.8384 219.713 74.8729 220.131 73.8154C220.595 72.62 221.151 71.7924 221.754 71.3326C222.357 70.8729 223.006 70.5051 223.794 70.1832C224.536 69.8614 225.418 69.5396 226.392 69.2178C227.504 68.8499 228.524 68.666 229.498 68.758C230.426 68.804 231.632 69.0338 233.069 69.4016C234.553 69.7695 235.713 70.1832 236.594 70.597C237.15 70.8729 237.707 71.2407 238.124 71.6545C238.078 71.1028 238.031 70.643 237.985 70.2292C237.939 69.4936 237.985 68.804 238.217 68.2523C238.496 67.5626 239.051 67.1028 239.748 67.0108C240.535 66.9189 241.185 67.3327 241.556 68.1143C241.834 68.712 242.02 69.8614 242.159 71.6085C242.298 73.2637 242.391 76.482 242.437 81.1716C242.484 85.9532 242.576 89.0796 242.622 90.7808C242.669 92.5738 242.669 93.7233 242.53 94.3669C242.344 95.6082 241.602 95.7922 241.185 95.7922ZM222.403 77.8613C221.893 79.2866 221.661 80.9417 221.661 82.6429C221.661 84.436 221.707 85.8152 221.847 86.7807C221.939 87.5624 222.217 88.1141 222.635 88.39C223.238 88.8038 223.841 89.2636 224.443 89.7232C224.953 90.1371 225.695 90.5049 226.577 90.8727C227.504 91.1945 228.432 91.5164 229.406 91.7463C230.287 91.9301 231.168 91.9301 232.095 91.6543C233.023 91.3784 233.858 90.9646 234.6 90.3669C235.435 89.6773 236.177 88.8038 236.733 87.8842C237.382 86.8268 237.892 85.7693 238.171 84.7118C238.449 83.6544 238.541 82.5969 238.496 81.4935C238.449 80.39 238.124 79.1946 237.567 77.9533C236.872 76.3441 236.455 75.6545 236.223 75.3786C235.898 74.9648 235.435 74.4591 234.785 73.9074C234.275 73.4476 233.626 73.1257 232.93 73.0338C232.142 72.9419 231.353 72.8499 230.612 72.8499H228.386C227.69 72.8499 227.319 72.9878 227.18 73.0797C226.809 73.3096 226.205 73.6315 225.371 73.9993C223.887 75.1947 222.867 76.528 222.403 77.8613ZM252.732 95.1025C252.269 95.1025 251.759 95.0106 251.248 94.7807C250.321 94.3669 249.765 93.8611 249.671 93.1716C249.578 92.6657 249.625 92.114 249.765 91.5164C249.95 90.7348 250.599 90.1371 251.805 89.6773L252.732 89.3095V89.8152C252.918 89.8152 253.103 89.8612 253.289 89.9072C253.613 89.9992 253.984 90.183 254.495 90.5509C255.051 90.9646 255.422 91.4704 255.561 92.0681C255.747 92.7577 255.608 93.4014 255.144 93.9072C254.773 94.3669 254.216 94.6888 253.567 94.9187C253.289 95.0565 253.011 95.1025 252.732 95.1025ZM268.361 90.8727C268.083 90.8727 267.758 90.7808 267.341 90.5968C266.737 90.229 266.367 89.5854 266.274 88.6658C266.227 87.9761 265.717 81.8153 264.79 70.2752C264.558 69.6315 264.418 68.9879 264.418 68.2523C264.418 67.4246 264.605 66.827 264.929 66.4132C265.207 66.0914 265.671 65.7235 266.552 65.7235C267.062 65.7235 267.897 65.9534 268.129 67.4706C268.268 68.2523 268.593 71.8384 269.195 78.3671C269.984 87.1026 270.03 88.6658 269.984 89.0796C269.891 89.9072 269.613 90.4589 269.103 90.7348C268.918 90.7808 268.639 90.8727 268.361 90.8727ZM265.625 64.6201C265.068 64.6201 264.418 64.4821 263.77 64.2063L263.584 64.1603L263.491 64.0224C263.028 63.4247 262.657 62.919 262.379 62.5511C262.147 62.1833 261.914 61.8155 261.729 61.4018C261.497 60.942 261.404 60.4362 261.404 59.8385C261.404 59.3328 261.451 58.827 261.497 58.2753C261.544 57.6776 261.682 57.1259 261.914 56.6661C262.147 56.1144 262.564 55.6547 263.166 55.2868C264.28 54.5972 265.532 54.5972 267.062 55.1489C267.897 55.4248 268.5 55.9765 268.963 56.8041C269.381 57.5397 269.613 58.3673 269.66 59.2868C269.705 60.2064 269.52 61.2178 269.056 62.2753C268.546 63.4247 267.99 64.0683 267.341 64.2982C266.737 64.4821 266.181 64.6201 265.625 64.6201ZM265.253 61.2178C265.485 61.3557 265.81 61.3557 266.042 61.2178C266.042 61.2178 266.181 61.1258 266.413 60.6201C266.599 60.2064 266.645 59.8845 266.645 59.5627C266.599 59.1948 266.506 58.873 266.367 58.5971C266.274 58.4132 266.135 58.2753 265.949 58.2294C265.532 58.0455 265.207 57.9995 264.929 58.1833C264.79 58.2753 264.743 58.3673 264.697 58.4592C264.651 58.5971 264.605 58.7811 264.605 58.965V59.7466C264.605 59.9304 264.605 60.1144 264.651 60.2064C264.697 60.3442 264.743 60.4822 264.836 60.6201C264.883 60.7121 265.022 60.8959 265.253 61.2178ZM287.236 95.1025C286.818 95.1025 286.262 94.9187 285.752 94.091C285.427 93.4934 285.288 92.5279 285.38 90.9646C285.473 89.6313 285.427 85.4475 285.334 78.551C285.242 72.7579 285.195 69.0338 285.195 67.8844C284.87 67.8384 284.082 67.7925 282.319 67.9763C279.815 68.2523 278.239 68.2982 277.543 68.2523C276.105 68.0683 275.967 67.2407 275.967 66.8729C275.967 66.4132 276.152 65.8155 276.987 65.3098C277.264 65.1258 277.775 64.85 285.473 64.2982C285.334 61.3098 285.242 58.3213 285.195 55.3788C285.102 50.7352 285.52 49.9536 285.89 49.5858C286.586 48.8961 287.236 48.8501 287.653 48.8961C288.673 49.034 288.905 50.4134 289.044 51.7466C289.183 53.1719 289.276 55.5167 289.322 58.827C289.368 62.1833 289.461 63.3787 289.508 63.7925C289.693 63.8384 290.157 63.8845 291.131 63.8384C292.522 63.7465 293.635 63.7006 294.423 63.6546C295.444 63.6086 296.139 63.8845 296.604 64.3902C296.835 64.6661 297.346 65.4936 296.417 66.5051C295.861 67.1028 294.934 67.4246 293.496 67.4246C292.337 67.4246 291.224 67.4706 290.25 67.5166C289.74 67.5626 289.508 67.6086 289.368 67.6545C289.368 68.3901 289.322 71.0108 289.276 75.9303C289.23 81.1716 289.23 85.2635 289.368 88.1601C289.555 92.16 289.183 93.3094 288.858 93.8152C288.534 94.3209 288.024 95.1025 287.236 95.1025Z" fill="white"/>
</g>
<defs>
<clipPath id="clip0_31_499">
<rect width="206.508" height="57.6546" fill="white" transform="translate(94.3848 42.2295)"/>
</clipPath>
</defs>
</svg>
