<svg width="395" height="142" viewBox="0 0 395 142" fill="none" xmlns="http://www.w3.org/2000/svg">
<mask id="mask0_31_500" style="mask-type:alpha" maskUnits="userSpaceOnUse" x="110" y="39" width="177" height="64">
<g clip-path="url(#clip0_31_500)">
<path d="M228.044 44.7868C227.758 44.7868 227.414 44.6722 227.185 44.4429L223.971 41.2292C223.513 40.7663 223.513 39.964 223.971 39.5055C224.431 39.047 225.233 39.047 225.695 39.5055L228.903 42.7192C229.362 43.1821 229.362 43.9845 228.903 44.4429C228.674 44.6722 228.387 44.7868 228.044 44.7868Z" fill="#29397F"/>
<path d="M281.55 44.7868C281.263 44.7868 280.919 44.6722 280.69 44.4429C280.228 43.9845 280.228 43.1821 280.69 42.7192L283.899 39.5055C284.357 39.047 285.163 39.047 285.622 39.5055C286.08 39.964 286.08 40.7663 285.622 41.2292L282.408 44.4429C282.122 44.6722 281.835 44.7868 281.55 44.7868Z" fill="#29397F"/>
<path d="M224.831 101.532C224.545 101.532 224.202 101.418 223.971 101.188C223.513 100.73 223.513 99.9277 223.971 99.4648L227.185 96.251C227.643 95.7926 228.445 95.7926 228.903 96.251C229.362 96.7096 229.362 97.5119 228.903 97.9748L225.695 101.188C225.466 101.418 225.175 101.532 224.831 101.532Z" fill="#29397F"/>
<path d="M284.757 101.532C284.471 101.532 284.128 101.418 283.899 101.188L280.69 97.9748C280.228 97.5119 280.228 96.7096 280.69 96.251C281.148 95.7926 281.95 95.7926 282.408 96.251L285.622 99.4648C286.08 99.9277 286.08 100.73 285.622 101.188C285.392 101.418 285.048 101.532 284.757 101.532Z" fill="#29397F"/>
<path d="M239.172 45.4787C238.767 45.4787 238.365 45.2495 238.136 44.9056L235.787 40.9424C235.443 40.3649 235.616 39.6199 236.189 39.276C236.761 38.9322 237.505 39.1041 237.85 39.6772L240.203 43.5831C240.547 44.1562 240.374 44.9056 239.802 45.2495C239.63 45.4214 239.401 45.4787 239.172 45.4787Z" fill="#29397F"/>
<path d="M249.723 45.9948C249.149 45.9948 248.634 45.5936 248.519 45.0205L247.598 40.5371C247.483 39.8494 247.885 39.219 248.576 39.1044C249.263 38.9898 249.894 39.3909 250.008 40.0787L250.925 44.5576C251.04 45.2498 250.639 45.8802 249.952 45.9948C249.836 45.9948 249.779 45.9948 249.723 45.9948Z" fill="#29397F"/>
<path d="M249.951 56.9629C249.436 56.9629 248.977 56.6192 248.805 56.1033L247.369 51.7963C247.14 51.1658 247.483 50.4737 248.171 50.2445C248.805 50.0153 249.492 50.3591 249.722 51.0513L251.154 55.3583C251.383 55.9888 251.04 56.6764 250.352 56.9057C250.181 56.9629 250.065 56.9629 249.951 56.9629Z" fill="#29397F"/>
<path d="M270.421 45.479C270.192 45.479 269.963 45.4217 269.792 45.3071C269.219 44.9632 269.047 44.2138 269.39 43.6407L271.744 39.7348C272.088 39.1617 272.832 38.9898 273.405 39.3337C273.979 39.6775 274.15 40.4225 273.806 41L271.457 44.9059C271.228 45.2498 270.823 45.479 270.421 45.479Z" fill="#29397F"/>
<path d="M259.872 45.9948C259.814 45.9948 259.699 45.9948 259.643 45.9948C258.955 45.8802 258.554 45.1924 258.668 44.5576L259.585 40.0787C259.699 39.3909 260.388 38.9898 261.017 39.1044C261.705 39.219 262.11 39.9067 261.992 40.5371L261.075 45.0205C260.961 45.5936 260.445 45.9948 259.872 45.9948Z" fill="#29397F"/>
<path d="M259.643 56.9627C259.528 56.9627 259.413 56.9627 259.241 56.9054C258.611 56.6762 258.267 55.9884 258.496 55.3581L259.928 51.051C260.158 50.4162 260.845 50.0724 261.476 50.2443C262.11 50.4735 262.454 51.1656 262.282 51.796L260.845 56.1031C260.616 56.6188 260.158 56.9627 259.643 56.9627Z" fill="#29397F"/>
<path d="M236.818 101.533C236.589 101.533 236.36 101.475 236.189 101.361C235.616 101.017 235.443 100.272 235.787 99.6987L238.136 95.7927C238.48 95.2152 239.229 95.0434 239.802 95.3871C240.374 95.7354 240.547 96.4805 240.203 97.0536L237.85 100.959C237.621 101.303 237.22 101.533 236.818 101.533Z" fill="#29397F"/>
<path d="M248.805 101.532C248.748 101.532 248.634 101.532 248.576 101.532C247.885 101.418 247.483 100.73 247.598 100.1L248.519 95.6206C248.634 94.9286 249.321 94.5274 249.952 94.642C250.639 94.7566 251.04 95.4444 250.925 96.0792L250.008 100.558C249.894 101.131 249.378 101.532 248.805 101.532Z" fill="#29397F"/>
<path d="M248.519 90.4496C248.405 90.4496 248.228 90.4496 248.114 90.3924C247.483 90.1631 247.14 89.4709 247.312 88.8406L248.748 84.5335C248.977 83.9032 249.665 83.5593 250.295 83.7885C250.925 84.0177 251.269 84.7055 251.097 85.3359L249.665 89.6473C249.492 90.1058 249.034 90.4496 248.519 90.4496Z" fill="#29397F"/>
<path d="M272.775 101.533C272.374 101.533 271.973 101.303 271.744 100.959L269.39 97.0536C269.047 96.4805 269.219 95.7354 269.792 95.3871C270.364 95.0434 271.11 95.2152 271.457 95.7927L273.806 99.6987C274.15 100.272 273.979 101.017 273.405 101.361C273.176 101.475 273.004 101.533 272.775 101.533Z" fill="#29397F"/>
<path d="M260.788 101.532C260.215 101.532 259.699 101.131 259.585 100.558L258.668 96.0792C258.554 95.387 258.955 94.7566 259.643 94.642C260.33 94.5274 260.961 94.9286 261.075 95.6206L261.992 100.1C262.11 100.787 261.705 101.418 261.017 101.532C260.961 101.532 260.846 101.532 260.788 101.532Z" fill="#29397F"/>
<path d="M261.074 90.4493C260.559 90.4493 260.101 90.1055 259.928 89.5897L258.496 85.2783C258.267 84.6479 258.611 83.9601 259.241 83.7309C259.872 83.5017 260.559 83.8456 260.788 84.476L262.225 88.783C262.454 89.4134 262.11 90.1055 261.418 90.3348C261.361 90.4493 261.189 90.4493 261.074 90.4493Z" fill="#29397F"/>
<path d="M273.692 90.4494C273.406 90.4494 273.062 90.3347 272.833 90.1055L269.619 86.8874C269.161 86.4289 269.161 85.6266 269.619 85.1636C270.079 84.7052 270.881 84.7052 271.343 85.1636L274.551 88.3818C275.01 88.8403 275.01 89.6471 274.551 90.1055C274.322 90.3347 273.979 90.4494 273.692 90.4494Z" fill="#29397F"/>
<path d="M280.862 55.874C280.461 55.874 280.055 55.6447 279.826 55.301C279.483 54.7234 279.655 53.9784 280.228 53.6345L284.128 51.2805C284.701 50.9322 285.45 51.1085 285.793 51.6815C286.137 52.2546 285.966 53.0041 285.393 53.348L281.493 55.702C281.264 55.8167 281.035 55.874 280.862 55.874Z" fill="#29397F"/>
<path d="M280.284 66.4413C279.712 66.4413 279.197 66.0402 279.082 65.4671C278.966 64.7749 279.368 64.1445 280.055 64.0299L284.528 63.1129C285.22 62.9939 285.851 63.3995 285.966 64.0872C286.08 64.7749 285.679 65.4098 284.991 65.5243L280.518 66.4413C280.461 66.4413 280.346 66.4413 280.284 66.4413Z" fill="#29397F"/>
<path d="M269.333 66.6703C268.817 66.6703 268.359 66.3264 268.188 65.8107C267.959 65.1803 268.302 64.4881 268.99 64.2589L273.291 62.8217C273.921 62.5925 274.608 62.9363 274.837 63.5712C275.067 64.2016 274.724 64.8893 274.035 65.1185L269.735 66.5556C269.62 66.6703 269.506 66.6703 269.333 66.6703Z" fill="#29397F"/>
<path d="M284.758 89.5323C284.529 89.5323 284.3 89.4705 284.128 89.3559L280.228 87.0018C279.655 86.6579 279.483 85.9129 279.826 85.3354C280.17 84.7623 280.92 84.5904 281.493 84.9342L285.393 87.2884C285.966 87.6366 286.137 88.3816 285.793 88.9547C285.564 89.2986 285.164 89.5323 284.758 89.5323Z" fill="#29397F"/>
<path d="M284.758 77.5285C284.701 77.5285 284.586 77.5285 284.528 77.5285L280.055 76.6071C279.368 76.4924 278.966 75.8047 279.082 75.1699C279.197 74.4823 279.884 74.081 280.518 74.1957L284.991 75.1127C285.679 75.2272 286.08 75.9194 285.966 76.5498C285.851 77.1229 285.335 77.5285 284.758 77.5285Z" fill="#29397F"/>
<path d="M273.692 77.8723C273.577 77.8723 273.463 77.8723 273.291 77.815L268.99 76.3779C268.359 76.1486 268.015 75.4609 268.188 74.8261C268.417 74.1957 269.104 73.8518 269.735 74.081L274.035 75.5182C274.666 75.7474 275.01 76.4352 274.838 77.0656C274.666 77.5284 274.208 77.8723 273.692 77.8723Z" fill="#29397F"/>
<path d="M228.731 55.874C228.502 55.874 228.273 55.8167 228.102 55.702L224.202 53.348C223.628 53.0041 223.456 52.2546 223.8 51.6815C224.144 51.1085 224.889 50.9322 225.466 51.2805L229.362 53.6345C229.935 53.9784 230.111 54.7234 229.762 55.301C229.591 55.702 229.189 55.874 228.731 55.874Z" fill="#29397F"/>
<path d="M229.304 66.4413C229.247 66.4413 229.133 66.4413 229.075 66.4413L224.602 65.5243C223.915 65.4098 223.513 64.7176 223.628 64.0872C223.742 63.3995 224.431 62.9939 225.06 63.1129L229.533 64.0299C230.225 64.1445 230.627 64.8323 230.512 65.4671C230.398 66.0402 229.878 66.4413 229.304 66.4413Z" fill="#29397F"/>
<path d="M240.26 66.6706C240.145 66.6706 239.974 66.6706 239.859 66.6133L235.558 65.1806C234.927 64.9468 234.584 64.2592 234.756 63.6288C234.985 62.994 235.672 62.6501 236.303 62.8793L240.604 64.3164C241.234 64.5457 241.578 65.2379 241.407 65.8682C241.234 66.3267 240.776 66.6706 240.26 66.6706Z" fill="#29397F"/>
<path d="M224.831 89.5323C224.431 89.5323 224.029 89.2986 223.8 88.9547C223.456 88.3816 223.628 87.6366 224.202 87.2884L228.102 84.9342C228.674 84.5904 229.419 84.7623 229.762 85.3354C230.111 85.9129 229.935 86.6579 229.362 87.0018L225.466 89.3559C225.289 89.4705 225.06 89.5323 224.831 89.5323Z" fill="#29397F"/>
<path d="M224.831 77.5285C224.258 77.5285 223.742 77.1229 223.628 76.5498C223.513 75.862 223.915 75.2272 224.602 75.1127L229.075 74.1957C229.762 74.081 230.398 74.4823 230.512 75.1699C230.627 75.862 230.225 76.4924 229.533 76.6071L225.06 77.5285C225.003 77.5285 224.946 77.5285 224.831 77.5285Z" fill="#29397F"/>
<path d="M235.902 77.872C235.387 77.872 234.927 77.5281 234.756 77.008C234.522 76.3776 234.871 75.6898 235.558 75.4606L239.859 74.0234C240.489 73.7942 241.177 74.138 241.406 74.7685C241.636 75.4033 241.292 76.091 240.605 76.3202L236.303 77.7573C236.188 77.8147 236.074 77.872 235.902 77.872Z" fill="#29397F"/>
<path d="M250.868 68.795C250.238 68.795 249.607 68.5658 249.149 68.0499L245.936 64.8318C244.963 63.8575 244.963 62.3058 245.936 61.3888C246.91 60.4101 248.461 60.4101 249.378 61.3888L252.587 64.6026C253.565 65.5812 253.565 67.1285 252.587 68.0499C252.128 68.5658 251.498 68.795 250.868 68.795Z" fill="#29397F"/>
<path d="M258.725 68.795C258.095 68.795 257.465 68.5658 257.003 68.0499C256.028 67.0713 256.028 65.524 257.003 64.6026L260.215 61.3888C261.189 60.4101 262.741 60.4101 263.657 61.3888C264.63 62.3631 264.63 63.9149 263.657 64.8318L260.444 68.0499C259.986 68.5658 259.356 68.795 258.725 68.795Z" fill="#29397F"/>
<path d="M247.656 79.9396C247.025 79.9396 246.394 79.7104 245.936 79.1902C244.963 78.216 244.963 76.6642 245.936 75.7473L249.149 72.5291C250.123 71.5548 251.67 71.5548 252.587 72.5291C253.565 73.5077 253.565 75.0551 252.587 75.9765L249.378 79.1902C248.863 79.7104 248.285 79.9396 247.656 79.9396Z" fill="#29397F"/>
<path d="M261.934 79.9396C261.303 79.9396 260.674 79.7104 260.215 79.1902L257.003 75.9765C256.028 74.9978 256.028 73.4504 257.003 72.5291C257.981 71.5548 259.527 71.5548 260.444 72.5291L263.657 75.7473C264.63 76.7214 264.63 78.2732 263.657 79.1902C263.199 79.7104 262.568 79.9396 261.934 79.9396Z" fill="#29397F"/>
<path d="M235.902 90.4494C235.615 90.4494 235.271 90.3347 235.042 90.1055C234.584 89.6471 234.584 88.8403 235.042 88.3818L238.251 85.1636C238.709 84.7052 239.516 84.7052 239.974 85.1636C240.432 85.6266 240.432 86.4289 239.974 86.8874L236.761 90.1055C236.531 90.3347 236.245 90.4494 235.902 90.4494Z" fill="#29397F"/>
<path d="M239.109 55.8742C238.823 55.8742 238.48 55.7596 238.251 55.5303L235.042 52.3121C234.584 51.8537 234.584 51.0514 235.042 50.5885C235.5 50.13 236.302 50.13 236.761 50.5885L239.974 53.8067C240.432 54.2651 240.432 55.0719 239.974 55.5303C239.745 55.7596 239.458 55.8742 239.109 55.8742Z" fill="#29397F"/>
<path d="M270.479 55.8742C270.193 55.8742 269.848 55.7596 269.619 55.5303C269.161 55.0719 269.161 54.2651 269.619 53.8067L272.833 50.5885C273.291 50.13 274.093 50.13 274.551 50.5885C275.01 51.0514 275.01 51.8537 274.551 52.3121L271.343 55.5303C271.052 55.7596 270.766 55.8742 270.479 55.8742Z" fill="#29397F"/>
<path d="M190.501 68H184.997C184.419 68 183.961 68.4629 183.961 69.036C183.961 69.6091 184.419 70.1249 184.997 70.1249H190.501C191.074 70.1249 191.532 69.6664 191.532 69.036C191.532 68.4629 191.131 68 190.501 68Z" fill="#29397F"/>
<path d="M202.025 68.9784L209.195 61.797C209.654 61.3386 209.654 60.5362 209.195 60.0734C208.737 59.6149 207.935 59.6149 207.472 60.0734L200.307 67.2546L193.136 60.0734C192.678 59.6149 191.876 59.6149 191.418 60.0734C190.959 60.5362 190.959 61.3386 191.418 61.797L198.583 68.9784L191.36 76.2126C190.902 76.6755 190.902 77.4778 191.36 77.9364C191.589 78.1656 191.933 78.2802 192.22 78.2802C192.506 78.2802 192.85 78.1656 193.079 77.9364L200.249 70.7594L207.53 77.9364C207.759 78.1656 208.107 78.2802 208.393 78.2802C208.68 78.2802 209.024 78.1656 209.253 77.9364C209.711 77.4778 209.711 76.6755 209.253 76.2126L202.025 68.9784Z" fill="#29397F"/>
<path d="M140.552 75.7544C137.11 75.7544 134.355 72.7699 134.355 69.036C134.355 65.302 137.167 62.313 140.552 62.313C143.993 62.313 146.743 65.3594 146.743 69.036C146.801 72.7699 143.993 75.7544 140.552 75.7544ZM147.947 59.959C147.259 59.959 146.743 60.4791 146.743 61.1669V62.776C145.139 60.995 142.843 59.959 140.552 59.959C135.792 59.959 131.949 64.0368 131.949 69.036C131.949 74.0307 135.792 78.1085 140.552 78.1085C142.901 78.1085 145.139 77.077 146.743 75.2959V76.905C146.743 77.5354 147.316 78.1085 147.947 78.1085C148.581 78.1085 149.154 77.5354 149.154 76.905V61.1096C149.154 60.4791 148.638 59.959 147.947 59.959Z" fill="#29397F"/>
<path d="M156.32 53.7563C155.69 53.7563 155.117 54.3338 155.117 54.9642V55.7665C155.117 56.4587 155.69 57.0318 156.32 57.0318C157.007 57.0318 157.585 56.4587 157.585 55.7665V54.9642C157.585 54.3338 157.007 53.7563 156.32 53.7563Z" fill="#29397F"/>
<path d="M156.32 59.959C155.632 59.959 155.117 60.4791 155.117 61.1669V76.9623C155.117 77.5927 155.69 78.1658 156.32 78.1658C157.007 78.1658 157.585 77.6501 157.585 76.9623V61.1669C157.585 60.4791 157.065 59.959 156.32 59.959Z" fill="#29397F"/>
<path d="M171.114 75.7544C167.677 75.7544 164.922 72.7699 164.922 69.036C164.922 65.302 167.734 62.313 171.114 62.313C174.556 62.313 177.31 65.3594 177.31 69.036C177.31 72.7699 174.556 75.7544 171.114 75.7544ZM178.514 59.959C177.826 59.959 177.31 60.4791 177.31 61.1669V62.776C175.702 60.995 173.41 59.959 171.114 59.959C166.355 59.959 162.516 64.0368 162.516 69.036C162.516 74.0307 166.355 78.1085 171.114 78.1085C173.467 78.1085 175.702 77.077 177.31 75.2959V76.905C177.31 77.5354 177.883 78.1085 178.514 78.1085C179.144 78.1085 179.717 77.5354 179.717 76.905V61.1096C179.717 60.4791 179.201 59.959 178.514 59.959Z" fill="#29397F"/>
<path d="M118.644 75.6971C115.26 75.6971 112.51 72.7126 112.51 69.036C112.51 65.3594 115.26 62.4321 118.644 62.4321C122.029 62.4321 124.836 65.4166 124.836 69.036C124.779 72.7126 122.029 75.6971 118.644 75.6971ZM126.044 59.959C125.352 59.959 124.779 60.4791 124.779 61.1669V62.776C123.175 60.995 120.941 59.959 118.587 59.959C113.885 59.959 110.042 64.0368 110.042 68.9787C110.042 73.9734 113.885 78.0512 118.587 78.0512C120.941 78.0512 123.175 77.0197 124.779 75.2959V76.4422C124.779 79.8896 122.086 82.5875 118.587 82.5875C117.728 82.5875 116.926 82.4155 116.062 82.0717C115.203 81.7279 114.572 81.2694 114.057 80.6389C113.828 80.348 113.541 80.2333 113.255 80.1761C112.911 80.1761 112.624 80.2907 112.395 80.5199C111.88 80.9828 111.937 81.7279 112.281 82.2436C113.026 83.0503 113.885 83.6808 114.744 84.082L114.859 84.1966C114.916 84.2538 114.973 84.2538 115.031 84.2538L115.26 84.3685C115.317 84.4258 115.432 84.4258 115.489 84.4832C116.467 84.8887 117.499 85.0606 118.587 85.0606C119.16 85.0606 119.79 85.0033 120.363 84.8887H120.42C120.998 84.7741 121.513 84.5977 121.972 84.3685C122.43 84.1966 122.888 83.9101 123.289 83.6808C123.404 83.6234 123.519 83.5089 123.633 83.4515L123.805 83.3369C123.977 83.165 124.206 83.0503 124.378 82.8211C124.55 82.6493 124.779 82.4729 124.951 82.1863C125.008 82.129 125.123 82.0144 125.123 82.0144C126.445 80.4053 127.132 78.5714 127.132 76.5611V61.2815C127.19 60.5365 126.674 59.959 126.044 59.959Z" fill="#29397F"/>
</g>
</mask>
<g mask="url(#mask0_31_500)">
<rect x="80.6904" y="10.8096" width="247.391" height="107.971" fill="white"/>
</g>
<defs>
<clipPath id="clip0_31_500">
<rect width="175.998" height="63.1994" fill="white" transform="translate(110.042 39.085)"/>
</clipPath>
</defs>
</svg>
