<svg width="395" height="142" viewBox="0 0 395 142" fill="none" xmlns="http://www.w3.org/2000/svg">
<g clip-path="url(#clip0_31_495)">
<path fill-rule="evenodd" clip-rule="evenodd" d="M137.742 54.6549C140.767 60.0605 142.104 66.2356 141.581 72.3958C141.059 78.5559 138.702 84.4232 134.809 89.2523H117.992L123.169 80.1772H116.322L124.393 66.0785H131.279L137.742 54.6704V54.6549ZM104.533 89.2523H87.3864C83.4209 84.4443 81.0149 78.5595 80.4844 72.3711C79.9538 66.1826 81.3236 59.9797 84.4137 54.5771L95.5359 73.7305L107.796 52.563H125.836L104.54 89.2367L104.533 89.2523Z" fill="white"/>
<path d="M151.674 72.1823C151.674 62.3918 156.592 57.687 164.671 57.687C172.75 57.687 177.66 62.3918 177.66 72.1823C177.66 81.9729 172.71 86.6232 164.671 86.6232C156.631 86.6232 151.674 81.8795 151.674 72.1823ZM154.592 72.1823C154.592 80.2309 158.294 84.0647 164.671 84.0647C171.048 84.0647 174.742 80.2309 174.742 72.1823C174.742 64.1337 171.04 60.2455 164.671 60.2455C158.302 60.2455 154.592 64.087 154.592 72.1823Z" fill="white"/>
<path d="M199.134 58.8855C199.237 58.6178 199.42 58.3875 199.658 58.225C199.896 58.0626 200.179 57.9756 200.468 57.9756C200.654 57.9746 200.839 58.0103 201.011 58.0808C201.183 58.1512 201.34 58.255 201.471 58.386C201.602 58.517 201.706 58.6727 201.776 58.8439C201.846 59.0151 201.882 59.1984 201.879 59.3831C201.873 59.5934 201.83 59.8011 201.754 59.9975L192.012 85.4654C191.922 85.7446 191.744 85.9882 191.506 86.161C191.267 86.3338 190.978 86.4269 190.683 86.4269C190.387 86.4269 190.099 86.3338 189.86 86.161C189.621 85.9882 189.444 85.7446 189.353 85.4654L179.611 59.9975C179.535 59.8011 179.493 59.5934 179.486 59.3831C179.484 59.1984 179.519 59.0151 179.589 58.8439C179.659 58.6727 179.763 58.517 179.894 58.386C180.026 58.255 180.182 58.1512 180.354 58.0808C180.527 58.0103 180.711 57.9746 180.898 57.9756C181.187 57.9756 181.469 58.0626 181.707 58.225C181.945 58.3875 182.128 58.6178 182.231 58.8855L190.679 81.095L199.134 58.8855Z" fill="white"/>
<path d="M207.793 73.124V85.0142C207.808 85.2073 207.782 85.4013 207.718 85.5841C207.653 85.7669 207.551 85.9344 207.418 86.0764C207.285 86.2183 207.124 86.3315 206.945 86.4089C206.766 86.4863 206.573 86.5263 206.378 86.5263C206.182 86.5263 205.989 86.4863 205.81 86.4089C205.631 86.3315 205.47 86.2183 205.337 86.0764C205.204 85.9344 205.102 85.7669 205.038 85.5841C204.973 85.4013 204.947 85.2073 204.962 85.0142V59.3519C204.947 59.1588 204.973 58.9648 205.038 58.7821C205.102 58.5993 205.204 58.4317 205.337 58.2898C205.47 58.1479 205.631 58.0346 205.81 57.9572C205.989 57.8798 206.182 57.8398 206.378 57.8398C206.573 57.8398 206.766 57.8798 206.945 57.9572C207.124 58.0346 207.285 58.1479 207.418 58.2898C207.551 58.4317 207.653 58.5993 207.718 58.7821C207.782 58.9648 207.808 59.1588 207.793 59.3519V70.5656H222.288V59.383C222.274 59.1899 222.3 58.9959 222.364 58.8132C222.429 58.6304 222.531 58.4628 222.664 58.3209C222.797 58.179 222.958 58.0657 223.137 57.9883C223.316 57.9109 223.509 57.871 223.704 57.871C223.9 57.871 224.093 57.9109 224.272 57.9883C224.451 58.0657 224.612 58.179 224.745 58.3209C224.878 58.4628 224.98 58.6304 225.044 58.8132C225.109 58.9959 225.135 59.1899 225.12 59.383V85.0453C225.135 85.2384 225.109 85.4324 225.044 85.6152C224.98 85.798 224.878 85.9655 224.745 86.1075C224.612 86.2494 224.451 86.3626 224.272 86.44C224.093 86.5174 223.9 86.5574 223.704 86.5574C223.509 86.5574 223.316 86.5174 223.137 86.44C222.958 86.3626 222.797 86.2494 222.664 86.1075C222.531 85.9655 222.429 85.798 222.364 85.6152C222.3 85.4324 222.274 85.2384 222.288 85.0453V73.124H207.793Z" fill="white"/>
<path d="M238.485 66.7703C239.703 66.7185 240.916 66.9487 242.029 67.4428C243.141 67.9368 244.122 68.6811 244.894 69.6165C245.08 69.8339 245.182 70.1092 245.184 70.3942C245.187 70.5523 245.158 70.7095 245.098 70.8562C245.039 71.0029 244.95 71.1362 244.837 71.2481C244.724 71.3599 244.59 71.448 244.442 71.5071C244.294 71.5661 244.135 71.5949 243.976 71.5917C243.782 71.593 243.591 71.5485 243.417 71.462C243.244 71.3755 243.094 71.2493 242.98 71.0941C242.438 70.4443 241.748 69.9324 240.966 69.601C240.184 69.2695 239.334 69.1282 238.485 69.1888C234.65 69.1888 232.611 71.6229 232.611 76.7009C232.611 81.7789 234.65 84.2518 238.485 84.2518C240.253 84.2354 241.958 83.6083 243.309 82.4788C243.529 82.2945 243.806 82.1926 244.094 82.191C244.414 82.191 244.721 82.3172 244.948 82.5418C245.174 82.7664 245.302 83.071 245.302 83.3886C245.3 83.59 245.25 83.7882 245.156 83.9667C245.062 84.1452 244.926 84.299 244.76 84.4151C243.011 85.8893 240.781 86.6826 238.485 86.647C233.113 86.647 229.905 83.4664 229.905 76.7009C229.905 69.9354 233.113 66.7703 238.485 66.7703Z" fill="white"/>
<path d="M251.765 58.0144V81.6315C251.765 83.2801 252.306 83.9644 253.428 83.9644C253.6 83.9509 253.774 83.9729 253.937 84.029C254.101 84.0852 254.251 84.1744 254.378 84.2909C254.506 84.4074 254.607 84.5487 254.676 84.706C254.746 84.8633 254.782 85.0331 254.782 85.2048C254.782 85.3765 254.746 85.5463 254.676 85.7036C254.607 85.8608 254.506 86.0022 254.378 86.1187C254.251 86.2352 254.101 86.3243 253.937 86.3805C253.774 86.4367 253.6 86.4587 253.428 86.4451C250.643 86.4451 249.098 84.7887 249.098 81.6159V58.0144C249.108 57.6677 249.252 57.3379 249.5 57.0933C249.748 56.8488 250.081 56.708 250.431 56.7002C250.784 56.7002 251.122 56.8384 251.371 57.0846C251.621 57.3309 251.763 57.6652 251.765 58.0144Z" fill="white"/>
<path d="M274.456 76.6777C274.456 83.4432 271.123 86.6238 265.711 86.6238C260.299 86.6238 256.973 83.4432 256.973 76.6777C256.973 69.9122 260.346 66.7705 265.711 66.7705C271.076 66.7705 274.456 69.9044 274.456 76.6777ZM271.75 76.6777C271.75 71.4753 269.546 69.1657 265.711 69.1657C261.875 69.1657 259.679 71.4986 259.679 76.6777C259.679 81.8568 261.883 84.2286 265.711 84.2286C269.538 84.2286 271.782 81.9579 271.782 76.6777H271.75Z" fill="white"/>
<path d="M280.873 68.3413V79.1116C280.873 81.7945 281.743 84.1041 285.947 84.1041C290.152 84.1041 291.03 81.7712 291.03 79.1116V68.3413C291.032 68.1649 291.069 67.9908 291.14 67.8287C291.21 67.6667 291.311 67.5201 291.439 67.3972C291.567 67.2743 291.717 67.1777 291.883 67.1128C292.048 67.048 292.225 67.0162 292.403 67.0193C292.575 67.0213 292.746 67.0571 292.905 67.1248C293.063 67.1924 293.207 67.2905 293.327 67.4133C293.447 67.5362 293.542 67.6814 293.606 67.8407C293.669 67.9999 293.7 68.1701 293.697 68.3413V79.1116C293.697 82.9999 292.403 86.6237 285.947 86.6237C279.492 86.6237 278.206 83.031 278.206 79.1116V68.3413C278.203 68.1668 278.235 67.9935 278.301 67.8316C278.367 67.6698 278.465 67.5228 278.589 67.3994C278.714 67.276 278.862 67.1788 279.025 67.1134C279.188 67.0481 279.363 67.0161 279.539 67.0193C279.892 67.0213 280.23 67.1612 280.48 67.4087C280.729 67.6562 280.871 67.9913 280.873 68.3413Z" fill="white"/>
<path d="M311.47 69.4535V58.0144C311.47 57.6638 311.611 57.3275 311.861 57.0796C312.111 56.8317 312.45 56.6924 312.804 56.6924C313.158 56.6924 313.497 56.8317 313.747 57.0796C313.997 57.3275 314.137 57.6638 314.137 58.0144V78.5209C314.137 83.9644 310.725 86.655 305.98 86.655C300.607 86.655 297.438 83.4745 297.438 76.709C297.438 69.9434 300.442 66.8018 305.807 66.8018C306.893 66.782 307.97 67.011 308.952 67.4709C309.934 67.9309 310.796 68.6093 311.47 69.4535ZM311.47 72.7974C311.47 72.7974 309.902 69.1658 305.98 69.1658C302.058 69.1658 300.105 71.5998 300.105 76.6779C300.105 81.7559 302.144 84.2288 305.98 84.2288C309.18 84.2288 311.47 82.4169 311.47 78.4898V72.7974Z" fill="white"/>
</g>
<defs>
<clipPath id="clip0_31_495">
<rect width="233.763" height="36.6893" fill="white" transform="translate(80.374 52.563)"/>
</clipPath>
</defs>
</svg>
