<svg width="395" height="142" viewBox="0 0 395 142" fill="none" xmlns="http://www.w3.org/2000/svg">
<mask id="mask0_31_501" style="mask-type:alpha" maskUnits="userSpaceOnUse" x="83" y="42" width="229" height="57">
<path fill-rule="evenodd" clip-rule="evenodd" d="M115.03 69.9026C113.72 69.9183 112.42 69.6758 111.203 69.1887C109.987 68.7017 108.878 67.9798 107.941 67.0642C107.003 66.1487 106.256 65.0574 105.74 63.8528C105.225 62.6481 104.951 61.3537 104.936 60.0435C104.99 57.4024 106.078 54.8877 107.965 53.039C109.852 51.1904 112.388 50.155 115.03 50.155C117.671 50.155 120.208 51.1904 122.095 53.039C123.982 54.8877 125.069 57.4024 125.123 60.0435C125.091 62.6884 124.01 65.2123 122.117 67.0601C120.224 68.9079 117.675 69.9283 115.03 69.897M141.784 45.1903C141.164 43.9711 140.107 43.0301 138.825 42.5543C137.542 42.0786 136.127 42.1029 134.862 42.6225C132.555 43.3077 131.53 46.3029 131.53 46.3029C131.245 47.5855 130.724 48.8035 129.991 49.8941C129.467 50.3988 128.799 50.728 128.08 50.836C127.361 50.944 126.626 50.8256 125.977 50.4971C124.177 49.0117 122.078 47.9316 119.823 47.3306C115.905 46.2522 111.732 46.5854 108.035 48.2719C105.804 49.5118 103.809 51.1341 102.141 53.0649C101.896 53.4209 101.582 53.7243 101.218 53.9573C100.854 54.1903 100.447 54.3483 100.021 54.4218C99.5957 54.4954 99.1594 54.4832 98.7384 54.3858C98.3174 54.2884 97.9201 54.1079 97.5699 53.8548C96.4827 53.2758 96.8012 51.1653 96.1614 49.1043C95.5673 47.821 94.5686 46.7681 93.3185 46.1071C92.0684 45.4461 90.6359 45.2136 89.2409 45.4451C87.5505 45.7183 86.0295 46.63 84.9917 47.9921C83.9539 49.3541 83.4786 51.0625 83.6637 52.7648C83.9617 54.4821 84.9199 56.0146 86.3334 57.0344C87.7468 58.0542 89.5032 58.4803 91.2269 58.2217C94.4302 57.773 95.6462 57.773 97.3137 58.4156C98.9812 59.0583 98.657 60.7895 98.9797 64.8973C99.3025 69.0052 101.928 72.343 104.105 74.656C104.484 75.0321 104.763 75.4967 104.917 76.0078C105.071 76.5189 105.095 77.0603 104.987 77.583C104.879 78.1057 104.642 78.5932 104.298 79.0013C103.954 79.4094 103.514 79.7253 103.017 79.9203C100.859 80.7807 98.8976 82.0682 97.25 83.7055C95.4537 85.7566 94.7501 91.5999 98.7872 94.2993C102.824 96.9987 107.82 96.281 110.386 92.3076C112.952 88.3342 111.218 85.0559 109.678 82.9368C108.138 80.8178 109.167 79.2791 111.153 78.8927C113.139 78.5062 115.959 79.4702 120.892 77.7362C123.198 76.9429 125.29 75.626 127.002 73.8889C128.714 72.1518 130 70.0417 130.76 67.7241C131.867 64.4482 131.822 60.8925 130.632 57.6456C130.41 56.9526 130.401 56.2089 130.607 55.5108C130.812 54.8127 131.223 54.1924 131.785 53.7302C132.307 53.3074 132.923 53.0167 133.581 52.8829C134.239 52.7491 134.92 52.7761 135.566 52.9616C136.301 53.1428 137.065 53.1698 137.811 53.0409C138.557 52.912 139.268 52.6301 139.9 52.2128C141.062 51.5138 141.908 50.3915 142.259 49.0817C142.61 47.772 142.44 46.377 141.784 45.1903Z" fill="#007DA2"/>
<path fill-rule="evenodd" clip-rule="evenodd" d="M150.754 88.2987H149.003V91.4398H150.754C151.732 91.4398 152.028 91.0831 152.028 90.3244V89.3887C152.023 88.63 151.705 88.2987 150.754 88.2987ZM147.266 86.7686H150.85C152.974 86.7686 153.759 87.6377 153.759 89.25V90.5041C153.759 92.1037 152.91 92.97 150.768 92.97H149.003V95.9426H147.266V86.7686Z" fill="#90B9BC"/>
<path fill-rule="evenodd" clip-rule="evenodd" d="M159.2 87.7042C158.883 87.6364 158.561 87.5994 158.236 87.5938C157.575 87.5938 157.479 87.884 157.479 88.3936V89.2344H159.188L159.09 90.5721H157.479V95.9511H155.797V90.5664H154.72V89.2287H155.797V88.3016C155.797 86.9101 156.444 86.2207 157.932 86.2207C158.421 86.2188 158.908 86.2831 159.38 86.4118L159.202 87.7085" fill="#90B9BC"/>
<path fill-rule="evenodd" clip-rule="evenodd" d="M163.572 93.4066H162.332C161.78 93.4066 161.624 93.5581 161.624 94.0677C161.624 94.5362 161.776 94.7429 162.299 94.7429C162.746 94.7367 163.184 94.6179 163.573 94.3975L163.572 93.4066ZM165.252 95.9546H163.868L163.745 95.5002C163.15 95.8876 162.456 96.0941 161.746 96.0947C160.519 96.0947 159.995 95.2539 159.995 94.0932C159.995 92.7286 160.588 92.2063 161.951 92.2063H163.565V91.4985C163.565 90.7525 163.358 90.4906 162.282 90.4906C161.657 90.4976 161.034 90.5673 160.422 90.6987L160.216 89.4162C160.966 89.2096 161.74 89.1035 162.517 89.1006C164.626 89.1006 165.246 89.8437 165.246 91.524V95.9546H165.252Z" fill="#90B9BC"/>
<path fill-rule="evenodd" clip-rule="evenodd" d="M167.114 95.9427V86.487L168.797 86.2534V95.9427H167.114Z" fill="#90B9BC"/>
<path fill-rule="evenodd" clip-rule="evenodd" d="M170.631 89.2348H175.525V90.5314L172.534 94.652H175.621V95.9473H170.589V94.6506L173.58 90.53H170.631V89.2334" fill="#90B9BC"/>
<path fill-rule="evenodd" clip-rule="evenodd" d="M177.73 95.9468L176.49 89.2344H178.063L178.889 93.7301L180.226 89.2344H181.977L183.3 93.7301L184.127 89.2344H185.699L184.457 95.9468H182.514L181.099 91.1227L179.683 95.9468H177.73Z" fill="#90B9BC"/>
<path fill-rule="evenodd" clip-rule="evenodd" d="M188.358 91.8821H190.494V91.5523C190.494 90.9195 190.3 90.4751 189.473 90.4751C188.646 90.4751 188.358 90.9181 188.358 91.5523V91.8821ZM189.667 94.7132C190.363 94.7096 191.056 94.6032 191.721 94.3975L191.981 95.6644C191.191 95.9488 190.356 96.0925 189.516 96.0891C187.405 96.0891 186.676 95.1095 186.676 93.4972V91.7165C186.676 90.301 187.31 89.1006 189.459 89.1006C191.608 89.1006 192.092 90.3533 192.092 91.8014V93.2339H188.358V93.5793C188.358 94.3933 188.641 94.7132 189.667 94.7132Z" fill="#90B9BC"/>
<path fill-rule="evenodd" clip-rule="evenodd" d="M197.14 90.6417C196.523 90.9228 195.928 91.2502 195.36 91.6212V95.9541H193.68V89.236H195.096L195.205 89.982C195.752 89.6125 196.345 89.3164 196.97 89.1016L197.135 90.6431" fill="#90B9BC"/>
<path fill-rule="evenodd" clip-rule="evenodd" d="M204.045 89.2345L202.073 92.5568L204.134 95.9427H202.294L200.265 92.5454L202.18 89.2232L204.045 89.2345ZM198.34 95.9427V86.487L200.02 86.2534V95.9427H198.34Z" fill="#90B9BC"/>
<path fill-rule="evenodd" clip-rule="evenodd" d="M206.658 91.8821H208.781V91.5523C208.781 90.9195 208.589 90.4751 207.762 90.4751C206.935 90.4751 206.646 90.9181 206.646 91.5523L206.658 91.8821ZM207.967 94.7132C208.663 94.709 209.355 94.6021 210.02 94.3961L210.281 95.663C209.491 95.9473 208.656 96.091 207.816 96.0876C205.705 96.0876 204.976 95.1081 204.976 93.4958V91.7165C204.976 90.301 205.61 89.1006 207.76 89.1006C209.911 89.1006 210.393 90.3533 210.393 91.8014V93.2339H206.658V93.5793C206.658 94.3933 206.941 94.7132 207.967 94.7132Z" fill="#90B9BC"/>
<path fill-rule="evenodd" clip-rule="evenodd" d="M216.535 93.1103C216.535 94.0035 216.92 94.5258 218.133 94.5258C218.607 94.5224 219.08 94.4855 219.549 94.4154V91.6339H221.188V95.6724C220.187 95.9442 219.154 96.0832 218.116 96.0858C215.869 96.0858 214.794 95.1331 214.794 93.3142V89.4002C214.794 87.5105 215.897 86.63 218.281 86.63C219.168 86.6256 220.052 86.7278 220.915 86.9344L220.721 88.449C219.873 88.2749 219.009 88.1918 218.143 88.2013C216.93 88.2013 216.531 88.6981 216.531 89.6338V93.1089" fill="#90B9BC"/>
<path fill-rule="evenodd" clip-rule="evenodd" d="M226.518 90.6417C225.9 90.9222 225.305 91.2497 224.738 91.6212V95.9541H223.057V89.236H224.472L224.581 89.982C225.128 89.6122 225.722 89.3162 226.346 89.1016L226.512 90.6431" fill="#90B9BC"/>
<path fill-rule="evenodd" clip-rule="evenodd" d="M229.329 89.2354V93.9236C229.329 94.2817 229.48 94.4615 229.865 94.4615C230.481 94.3914 231.076 94.1989 231.616 93.8953V89.2354H233.298V95.9478H232.017L231.851 95.3816C231.014 95.8026 230.098 96.0436 229.162 96.0893C228.046 96.0893 227.648 95.3009 227.648 94.1076V89.2354H229.329Z" fill="#90B9BC"/>
<path fill-rule="evenodd" clip-rule="evenodd" d="M236.98 94.4728C237.469 94.5819 237.968 94.6416 238.469 94.6511C239.075 94.6511 239.31 94.368 239.31 93.7565V91.3855C239.31 90.8334 239.101 90.5362 238.481 90.5362C237.925 90.5551 237.394 90.7691 236.98 91.1406V94.4728ZM240.991 93.7155C240.991 95.2046 240.33 96.0865 238.772 96.0865C238.17 96.0803 237.57 96.0154 236.981 95.8925V98.6627L235.301 98.8963V89.2353H236.636L236.8 89.8015C237.412 89.3421 238.157 89.0938 238.923 89.0938C240.274 89.0938 240.988 89.8935 240.988 91.4223V93.7155H240.991Z" fill="#90B9BC"/>
<path fill-rule="evenodd" clip-rule="evenodd" d="M244.396 94.4728C244.885 94.5817 245.384 94.6415 245.885 94.6511C246.491 94.6511 246.726 94.368 246.726 93.7565V91.3855C246.726 90.8334 246.521 90.5362 245.901 90.5362C245.343 90.5554 244.81 90.7705 244.396 91.1434V94.4728ZM248.407 93.7155C248.407 95.2046 247.746 96.0865 246.189 96.0865C245.587 96.0804 244.987 96.0155 244.397 95.8925V98.6627L242.716 98.8963V89.2353H244.055L244.219 89.8015C244.831 89.3421 245.576 89.0938 246.342 89.0938C247.694 89.0938 248.409 89.8935 248.409 91.4223V93.7155H248.407Z" fill="#90B9BC"/>
<path fill-rule="evenodd" clip-rule="evenodd" d="M251.51 91.8821H253.645V91.5523C253.645 90.9195 253.452 90.4751 252.625 90.4751C251.799 90.4751 251.51 90.9181 251.51 91.5523V91.8821ZM252.818 94.7132C253.515 94.7092 254.208 94.6024 254.873 94.3961L255.134 95.663C254.343 95.9473 253.508 96.091 252.668 96.0876C250.557 96.0876 249.827 95.1081 249.827 93.4958V91.7165C249.827 90.301 250.462 89.1006 252.613 89.1006C254.763 89.1006 255.244 90.3533 255.244 91.8014V93.2339H251.51V93.5793C251.51 94.3933 251.793 94.7132 252.818 94.7132Z" fill="#90B9BC"/>
<path fill-rule="evenodd" clip-rule="evenodd" d="M156.156 59.7687H151.693V67.7806H156.156C158.65 67.7806 159.388 66.8661 159.388 64.934V62.546C159.388 60.6138 158.579 59.7687 156.156 59.7687ZM147.266 55.876H156.401C161.812 55.876 163.814 58.0899 163.814 62.1991V65.3954C163.814 69.4721 161.635 71.686 156.19 71.686H151.693V79.2747H147.266V55.876Z" fill="#000307"/>
<path fill-rule="evenodd" clip-rule="evenodd" d="M167.503 79.269V55.876H181.977V59.7687H171.926V65.9885H181.202V69.8897H171.929V79.2704L167.503 79.269Z" fill="#000307"/>
<path fill-rule="evenodd" clip-rule="evenodd" d="M189.705 70.5975H196.17L192.977 59.5224L189.705 70.5975ZM197.295 74.4194H188.617L187.14 79.2676H182.502L189.882 55.876H196.067L203.446 79.2747H198.807L197.295 74.4194Z" fill="#000307"/>
<path fill-rule="evenodd" clip-rule="evenodd" d="M211.378 75.3692H221.004V79.269H206.956V55.876H211.378V75.3692Z" fill="#000307"/>
<path fill-rule="evenodd" clip-rule="evenodd" d="M229.301 75.5094H240.158V79.269H224.346V75.5518L235.167 59.637H224.767V55.876H240.054V59.6356L229.296 75.515" fill="#000307"/>
<path fill-rule="evenodd" clip-rule="evenodd" d="M254.842 67.4298L262.714 79.2707H257.618L249.96 67.4298L257.196 55.8706H262.22L254.842 67.4298ZM244.9 79.2707H249.326V55.8763H244.9V79.2707Z" fill="#000307"/>
<path fill-rule="evenodd" clip-rule="evenodd" d="M269.245 72.1704C269.245 74.3843 270.378 75.7191 273.673 75.7191C276.969 75.7191 278.1 74.3843 278.1 72.1704V62.9695C278.1 60.7556 276.967 59.4207 273.673 59.4207C270.379 59.4207 269.245 60.7542 269.245 62.9695V72.1704ZM282.527 72.4167C282.527 76.3151 280.28 79.6189 273.675 79.6189C267.07 79.6189 264.819 76.3179 264.819 72.4181V62.7203C264.819 58.8205 267.067 55.5195 273.672 55.5195C280.277 55.5195 282.525 58.8205 282.525 62.7203V72.4181L282.527 72.4167Z" fill="#000307"/>
<path fill-rule="evenodd" clip-rule="evenodd" d="M301.78 76.2483H296.158L291.836 64.1271L291.45 79.2733H286.92L287.972 55.876H292.926L298.967 72.4929L305.012 55.876H309.966L311.021 79.2747H306.491L306.105 64.1285L301.78 76.2483Z" fill="#000307"/>
</mask>
<g mask="url(#mask0_31_501)">
<g filter="url(#filter0_d_31_501)">
<rect x="82.5762" y="41.1812" width="229.57" height="57.6546" fill="white"/>
</g>
</g>
<defs>
<filter id="filter0_d_31_501" x="30.7762" y="0.381153" width="333.17" height="161.255" filterUnits="userSpaceOnUse" color-interpolation-filters="sRGB">
<feFlood flood-opacity="0" result="BackgroundImageFix"/>
<feColorMatrix in="SourceAlpha" type="matrix" values="0 0 0 0 0 0 0 0 0 0 0 0 0 0 0 0 0 0 127 0" result="hardAlpha"/>
<feMorphology radius="8" operator="erode" in="SourceAlpha" result="effect1_dropShadow_31_501"/>
<feOffset dy="11"/>
<feGaussianBlur stdDeviation="29.9"/>
<feComposite in2="hardAlpha" operator="out"/>
<feColorMatrix type="matrix" values="0 0 0 0 0.445192 0 0 0 0 0.445192 0 0 0 0 0.445192 0 0 0 0.25 0"/>
<feBlend mode="normal" in2="BackgroundImageFix" result="effect1_dropShadow_31_501"/>
<feBlend mode="normal" in="SourceGraphic" in2="effect1_dropShadow_31_501" result="shape"/>
</filter>
</defs>
</svg>
