<svg width="395" height="142" viewBox="0 0 395 142" fill="none" xmlns="http://www.w3.org/2000/svg">
<path d="M156.823 61.8753C155.394 55.0493 152.603 51.6364 148.486 51.6364C145.288 51.6364 143.382 53.8548 143.382 56.9606C143.382 61.2609 147.329 62.592 150.732 63.8206C156.108 65.766 160.498 68.0527 160.498 74.3326C160.498 80.3394 156.244 85.1516 150.153 85.1516C146.24 85.1516 142.974 82.9332 141.647 81.8069L140.524 84.3325H138.618V71.6022H140.592C141.306 74.8104 142.191 77.2336 143.28 78.94C144.981 81.6022 147.193 82.9332 149.983 82.9332C153.726 82.9332 155.836 80.3735 155.836 76.7558C155.836 72.0117 152.127 70.6466 148.248 69.3155C142.94 67.4725 138.856 65.22 138.856 59.0766C138.856 53.5135 142.667 49.418 148.248 49.418C151.447 49.418 153.862 50.8173 155.836 52.319L156.789 50.2029H158.626V61.8753H156.823ZM171.829 84.6056L164.717 65.9708C163.628 63.1381 163.22 62.6602 161.791 62.6602H160.974V60.6807H172.374V62.6602H170.604C169.719 62.6602 169.345 63.0015 169.345 63.6841C169.379 64.0937 169.481 64.5032 169.651 64.8787L174.517 77.3018L178.601 65.8343C178.805 65.2541 178.941 64.6398 179.009 64.0254C179.009 63.0698 178.533 62.6261 177.444 62.6261H175.674V60.6466H184.555V62.6261H183.705C182.684 62.6261 182.276 63.2063 181.595 65.0152L173.735 86.1755C171.829 91.295 170.264 93.4451 166.725 93.4451C164.037 93.4451 161.587 91.7045 161.587 88.8376C161.587 86.9946 162.812 85.5612 164.717 85.5612C166.385 85.5612 167.746 86.6875 167.746 88.3939C167.746 89.6226 167.167 90.51 165.976 91.1243C166.283 91.2267 166.589 91.2608 166.929 91.2608C168.869 91.2608 169.958 89.9298 171.353 85.9707L171.829 84.6056ZM198.983 68.5647C197.962 64.2302 195.955 62.08 192.994 62.08C190.953 62.08 189.626 63.2746 189.626 65.3565C189.626 67.8821 192.586 68.667 194.526 69.2814C198.609 70.6124 202.216 72.3872 202.216 77.1994C202.216 81.9435 198.677 84.8445 194.117 84.8445C191.701 84.8445 189.387 83.9571 187.516 82.4213L186.903 84.3325H185.168V75.2541H186.903C187.992 78.8035 189.762 82.8308 194.117 82.8308C196.397 82.8308 197.86 81.2609 197.86 79.0083C197.86 76.0049 194.832 74.981 192.484 74.196C188.775 72.8991 185.406 71.2268 185.406 66.824C185.406 62.6602 188.707 60.237 192.654 60.237C194.798 60.3053 196.907 61.022 198.643 62.2848L199.153 60.749H200.889V68.5988L198.983 68.5647ZM219.366 78.4964C219.366 82.5237 217.052 84.8445 213.037 84.8445C209.021 84.8445 206.707 82.5237 206.707 78.4964V63.0357H203.066V60.9879C205.346 60.4418 206.878 59.5886 207.83 58.4282C208.851 57.1995 209.498 54.8446 209.838 51.8753H211.778V60.6807H218.617V63.0015H211.778V78.7353C211.778 81.3974 212.866 82.2165 214.057 82.2165C215.793 82.2165 216.984 80.9537 216.984 78.0186V75.6636H219.366V78.4964ZM226.886 72.6261C227.056 76.551 227.226 82.6943 232.33 82.6943C235.665 82.6943 237.332 79.9298 238.523 77.2336L240.565 78.2916C238.625 82.2165 236.277 85.0492 231.548 85.0492C224.334 85.0492 221.407 78.8718 221.407 72.5237C221.407 66.4145 224.368 59.9981 231.105 59.9981C238.353 59.9981 240.599 66.9947 240.769 72.6261H226.886ZM235.257 70.4418C235.155 64.7421 233.759 62.08 231.207 62.08C228.655 62.08 227.124 64.9811 226.954 70.4418H235.257ZM274.593 67.0288V79.9298C274.627 81.7045 275.273 82.4213 277.077 82.4213H277.757V84.3667H269.556V67.4725C269.556 64.1619 268.57 62.7968 266.46 62.7968C263.806 62.7968 262.547 65.8684 262.547 70.1346V79.9298C262.581 81.7045 263.227 82.4213 265.031 82.4213H265.847V84.3667H257.511V67.4725C257.511 64.1619 256.49 62.7968 254.38 62.7968C251.624 62.7968 250.467 65.8684 250.467 70.1346V79.9298C250.501 81.7045 251.148 82.4213 252.951 82.4213H253.768V84.3667H242.028V82.4213H242.947C244.716 82.4213 245.431 81.7387 245.431 79.9298V64.8787C245.397 63.1039 244.75 62.3872 242.947 62.3872H242.266V60.4418H250.161V63.1039C251.42 61.2609 253.529 60.1688 255.775 60.1688C258.736 60.1688 260.675 61.534 261.866 63.7865C263.057 61.5681 265.337 60.2029 267.821 60.1688C272.109 60.1688 274.593 62.6944 274.593 67.0288ZM293.41 68.5647C292.389 64.2302 290.381 62.08 287.421 62.08C285.379 62.08 284.052 63.2746 284.052 65.3565C284.052 67.8821 287.013 68.667 288.952 69.2814C293.036 70.6124 296.643 72.3872 296.643 77.1994C296.643 81.9435 293.104 84.8445 288.544 84.8445C286.128 84.8445 283.814 83.9571 281.943 82.4213L281.33 84.3325H279.595V75.2541H281.33C282.419 78.8035 284.188 82.8308 288.544 82.8308C290.824 82.8308 292.287 81.2609 292.287 79.0083C292.287 76.0049 289.259 74.981 286.911 74.196C283.202 72.8991 279.833 71.2268 279.833 66.824C279.833 62.6602 283.134 60.237 287.081 60.237C289.224 60.3053 291.334 61.022 293.07 62.2848L293.58 60.749H295.315V68.5988L293.41 68.5647ZM103.229 72.7285H96.4238V65.9026H103.229V72.7285ZM96.4238 50.2029V61.807H98.4655V61.4657C98.4655 56.005 101.528 52.592 107.313 52.592H107.653V77.1653C107.653 80.5783 106.292 81.9435 102.889 81.9435H101.868V84.3325H119.563V81.9435H118.542C115.139 81.9435 113.778 80.5783 113.778 77.1653V52.592H114.118C119.903 52.592 122.965 56.005 122.965 61.4657V61.807H125.007V50.2029H96.4238ZM118.202 72.7285H125.007V65.9026H118.202V72.7285Z" fill="white"/>
</svg>
